<svg width="46" height="41" viewBox="0 0 46 41" fill="none" xmlns="http://www.w3.org/2000/svg">
<path d="M41 41C42.1935 41 43.3381 40.5259 44.182 39.682C45.0259 38.8381 45.5 37.6935 45.5 36.5V25.511C45.5 24.3175 45.0259 23.1729 44.182 22.329C43.3381 21.4851 42.1935 21.011 41 21.011H34.754C34.754 19.43 34.847 17.849 35.033 16.268C35.312 14.594 35.777 13.106 36.428 11.804C37.079 10.502 37.9175 9.4775 38.9435 8.7305C39.9635 7.8935 41.2655 7.475 42.8495 7.475V0.5C40.2455 0.5 37.9655 1.058 36.0095 2.174C34.0671 3.27594 32.3982 4.8018 31.127 6.638C29.8473 8.65917 28.905 10.8751 28.337 13.199C27.7627 15.7628 27.4819 18.3837 27.5 21.011V36.5C27.5 37.6935 27.9741 38.8381 28.818 39.682C29.662 40.5259 30.8065 41 32 41H41ZM14 41C15.1935 41 16.3381 40.5259 17.182 39.682C18.0259 38.8381 18.5 37.6935 18.5 36.5V25.511C18.5 24.3175 18.0259 23.1729 17.182 22.329C16.3381 21.4851 15.1935 21.011 14 21.011H7.75403C7.75403 19.43 7.84702 17.849 8.03302 16.268C8.31502 14.594 8.78003 13.106 9.42803 11.804C10.079 10.502 10.9175 9.4775 11.9435 8.7305C12.9635 7.8935 14.2655 7.475 15.8495 7.475V0.5C13.2455 0.5 10.9655 1.058 9.00953 2.174C7.06707 3.27594 5.39816 4.8018 4.12703 6.638C2.84727 8.65917 1.90496 10.8751 1.33703 13.199C0.762753 15.7628 0.481948 18.3837 0.500027 21.011V36.5C0.500027 37.6935 0.974132 38.8381 1.81805 39.682C2.66196 40.5259 3.80655 41 5.00003 41H14Z" fill="#0A0117"/>
</svg>
